<svg xmlns="http://www.w3.org/2000/svg" width="1200" height="630" viewBox="0 0 1200 630">
  <rect width="1200" height="630" fill="#FFFFFF"/>

  <!-- hairlines -->
  <g stroke="#E3E3DF" stroke-width="1">
    <path d="M0 118 H1200"/>
    <path d="M0 512 H1200"/>
    <path d="M760 118 V512"/>
  </g>

  <!-- logo -->
  <rect x="72" y="36" width="46" height="46" fill="#0A0A0A"/>
  <g transform="translate(79 42)" fill="#FFFFFF">
    <path fill-rule="evenodd" d="M1.3 19.6C5.6 10.8 11.2 7.6 15.2 12.9l.8 1.05.8-1.05c4-5.3 9.6-2.1 13.9 6.7.35.75-.5 1.5-1.15.95-4.3-3.6-8.3-4.1-11-1.4l-2.1 2.1c-.25.25-.65.25-.9 0l-2.1-2.1c-2.7-2.7-6.7-2.2-11 1.4-.65.55-1.5-.2-1.15-.95Z"/>
  </g>
  <text x="132" y="70" font-family="Inter Tight, Helvetica Neue, Helvetica, Arial, sans-serif" font-size="30" font-weight="700" letter-spacing="-1" fill="#0A0A0A">Pigeon<tspan fill="#2B5CFF">X</tspan></text>

  <text x="1128" y="70" text-anchor="end" font-family="JetBrains Mono, Menlo, Courier New, monospace" font-size="15" font-weight="500" letter-spacing="1.2" fill="#5F5F5F">SOUND BASED BIRD DETERRENCE</text>

  <!-- headline -->
  <g font-family="Inter Tight, Helvetica Neue, Helvetica, Arial, sans-serif" font-size="68" font-weight="700" letter-spacing="-2" fill="#0A0A0A">
    <text x="72" y="238">Bird control you</text>
    <text x="72" y="308">run from your phone.</text>
  </g>

  <text x="72" y="388" font-family="Inter, Helvetica Neue, Helvetica, Arial, sans-serif" font-size="25" fill="#1F1F1F">Pick a profile, route it to your speakers</text>
  <text x="72" y="424" font-family="Inter, Helvetica Neue, Helvetica, Arial, sans-serif" font-size="25" fill="#1F1F1F">or our emitters, schedule it around service.</text>

  <!-- primary action block -->
  <rect x="72" y="452" width="196" height="44" fill="#2B5CFF"/>
  <text x="170" y="480" text-anchor="middle" font-family="Inter, Helvetica Neue, Helvetica, Arial, sans-serif" font-size="17" font-weight="500" fill="#FFFFFF">Start a pilot</text>

  <!-- app frame -->
  <g>
    <rect x="826" y="158" width="286" height="300" fill="#FFFFFF" stroke="#0A0A0A" stroke-width="1.5"/>
    <path d="M826 196 H1112" stroke="#0A0A0A" stroke-width="1.5"/>
    <text x="842" y="182" font-family="JetBrains Mono, Menlo, Courier New, monospace" font-size="12" font-weight="500" letter-spacing="1" fill="#5F5F5F">IOS / ANDROID</text>
    <text x="1096" y="182" text-anchor="end" font-family="JetBrains Mono, Menlo, Courier New, monospace" font-size="12" font-weight="500" letter-spacing="1" fill="#0A0A0A">DETERRENT</text>

    <rect x="842" y="212" width="254" height="38" fill="#F5F5F3" stroke="#E3E3DF" stroke-width="1"/>
    <text x="854" y="236" font-family="JetBrains Mono, Menlo, Courier New, monospace" font-size="12" font-weight="500" letter-spacing="1" fill="#0F8A4B">RUNNING</text>
    <text x="1084" y="236" text-anchor="end" font-family="JetBrains Mono, Menlo, Courier New, monospace" font-size="13" font-weight="500" fill="#0F8A4B">12:40</text>

    <rect x="842" y="258" width="254" height="38" fill="#FFFFFF" stroke="#E3E3DF" stroke-width="1"/>
    <text x="854" y="283" font-family="Inter Tight, Helvetica Neue, Helvetica, Arial, sans-serif" font-size="16" font-weight="600" fill="#0A0A0A">Pigeon</text>
    <rect x="1020" y="268" width="64" height="20" fill="#FFFFFF" stroke="#2B5CFF" stroke-width="1"/>
    <text x="1052" y="282" text-anchor="middle" font-family="JetBrains Mono, Menlo, Courier New, monospace" font-size="11" font-weight="500" letter-spacing="0.8" fill="#2B5CFF">18 KHZ</text>

    <rect x="842" y="304" width="254" height="72" fill="#F5F5F3" stroke="#E3E3DF" stroke-width="1"/>
    <g fill="#2B5CFF">
      <rect x="850" y="346" width="6" height="22"/>
      <rect x="860" y="334" width="6" height="34"/>
      <rect x="870" y="352" width="6" height="16"/>
      <rect x="880" y="326" width="6" height="42"/>
      <rect x="890" y="340" width="6" height="28"/>
      <rect x="900" y="318" width="6" height="50"/>
      <rect x="910" y="344" width="6" height="24"/>
      <rect x="920" y="314" width="6" height="54"/>
      <rect x="930" y="336" width="6" height="32"/>
      <rect x="940" y="350" width="6" height="18"/>
      <rect x="950" y="322" width="6" height="46"/>
      <rect x="960" y="340" width="6" height="28"/>
      <rect x="970" y="312" width="6" height="56"/>
      <rect x="980" y="344" width="6" height="24"/>
      <rect x="990" y="330" width="6" height="38"/>
      <rect x="1000" y="352" width="6" height="16"/>
      <rect x="1010" y="324" width="6" height="44"/>
      <rect x="1020" y="342" width="6" height="26"/>
      <rect x="1030" y="316" width="6" height="52"/>
      <rect x="1040" y="348" width="6" height="20"/>
      <rect x="1050" y="332" width="6" height="36"/>
      <rect x="1060" y="354" width="6" height="14"/>
      <rect x="1070" y="338" width="6" height="30"/>
      <rect x="1080" y="326" width="6" height="42"/>
    </g>

    <rect x="842" y="384" width="254" height="34" fill="#FFFFFF" stroke="#E3E3DF" stroke-width="1"/>
    <text x="854" y="406" font-family="Inter, Helvetica Neue, Helvetica, Arial, sans-serif" font-size="13" fill="#5F5F5F">Phone speaker, up to 18 kHz</text>

    <rect x="842" y="426" width="254" height="18" fill="#0A0A0A"/>
  </g>

  <!-- footer strip -->
  <g font-family="JetBrains Mono, Menlo, Courier New, monospace" font-size="14" font-weight="500" letter-spacing="1.2" fill="#5F5F5F">
    <text x="72" y="566">RESTAURANTS</text>
    <text x="250" y="566">HOTELS</text>
    <text x="368" y="566">ROOFTOPS AND PATIOS</text>
    <text x="660" y="566">WAREHOUSES</text>
    <text x="1128" y="566" text-anchor="end" fill="#0A0A0A">PIGEONX.ORG</text>
  </g>
</svg>
